<svg width="24" height="24" viewBox="0 0 128 128" xmlns="http://www.w3.org/2000/svg">
  <path d="M64 0C28.7 0 0 28.7 0 64c0 35.3 28.7 64 64 64s64-28.7 64-64C128 28.7 99.3 0 64 0zm22.1 84.1c-1.7 4.2-5.5 9-11.4 9h-54c-2.2 0-3.8-1.9-3.8-4.2 0-1.9 1.6-3.5 3.5-3.5h54c2.3 0 3.6-1.3 4.5-3.2l.2-.4c.8-2.2 2.1-5.3 3.7-9.1 3.4-8 9-21.4 9.2-21.6 1-2.4-.6-3.4-1.7-3.4h-29v-.1H41.5c-2.2 0-3.8 1.9-3.8 4.2 0 1.9 1.6 3.5 3.5 3.5h19.1v.1h12.2l-12.9 30.2c-.8 1.7.4 2.7 1.3 3.1.9.4 2.9.9 4.2-1.8l13.4-31.8c.8-1.8 2.9-1.8 2.9-1.8h15.8s2.1 0 1.2 2c-.7 1.7-6.5 15.2-11.3 24.9z" fill="#FFFFFF" />
</svg> 