<svg width="24" height="24" viewBox="0 0 45 45" xmlns="http://www.w3.org/2000/svg">
    <g fill="none" fill-rule="evenodd">
        <path d="M22.5 0C10.074 0 0 10.074 0 22.5S10.074 45 22.5 45 45 34.926 45 22.5 34.926 0 22.5 0z" fill="#FFF"/>
        <path d="M24.264 21.259L5.563 28.93a.938.938 0 0 0-.588.87c0 .363.205.663.508.824l17.835 8.924a.938.938 0 0 0 .424.101c.14 0 .279-.03.407-.092l16.13-7.725a.933.933 0 0 0 .534-.843.94.94 0 0 0-.526-.844L25.111 21.28a.933.933 0 0 0-.847-.022z" fill="#FF9C27"/>
        <path d="M40.287 16.747L25.111 7.881a.933.933 0 0 0-.847-.022L5.563 15.53a.938.938 0 0 0-.588.87c0 .363.205.663.508.824l17.835 8.924a.938.938 0 0 0 .424.101c.14 0 .279-.03.407-.092l16.13-7.725a.933.933 0 0 0 .534-.843.94.94 0 0 0-.526-.844z" fill="#FC3D43"/>
    </g>
</svg> 